<svg width="903" height="212" viewBox="0 0 903 212" fill="none" xmlns="http://www.w3.org/2000/svg">
<g clip-path="url(#clip0_1_32)">
<path d="M240.8 203.57C222.68 203.57 217.44 194.81 217.44 168.77H217.42V164.29C217.42 164.09 217.42 163.9 217.42 163.7V108.98C217.42 90.79 210.06 83.58 199.53 89.01L151.96 121.83L133.87 134.07V166.31L151.96 153.83V128.33L181.6 107.7C189.17 102.43 199.53 103.24 199.53 123.75V137.24L133.87 182.53V193.17C133.87 203.16 145.87 211.26 157.78 211.26H180.51C187.72 208.25 194.13 205.3 199.52 201.67C199.52 203.56 204.24 211.26 213.89 211.26H243.98V203.57H240.78H240.8ZM179.76 203.57H171.1C160.54 203.57 151.97 195.01 151.97 184.44V176.14L199.54 143.33V170.26C199.54 197.1 179.76 203.57 179.76 203.57Z" fill="white"/>
<path d="M325.75 120.73V108.98C325.75 90.79 318.39 83.58 307.86 89.01L260.29 121.83L242.2 134.07V159.9C242.2 175.75 259.99 185.09 273.03 176.09L307.85 152.07V170.27C307.85 197.11 288.07 203.58 288.07 203.58H281.5C271.51 203.58 263.29 196.08 262.11 186.41H244.19C245.93 200.29 254.7 211.28 268.32 211.28H288.83C311.01 202.03 325.74 193.33 325.74 163.72V133.66L307.85 146L275.93 168.02C269.31 172.59 260.28 167.85 260.28 159.8V128.35L289.92 107.72C297.49 102.45 307.85 103.26 307.85 123.77V133.09L325.74 120.74L325.75 120.73Z" fill="white"/>
<path d="M519.22 102.71L474.88 133.3V90.37L427.99 125.05C426.89 125.87 427.83 127.57 429.12 127.09C432.77 125.7 437.23 122.85 441.93 120.31C448.74 116.64 457 121.64 457 129.37L457.02 170.52C457.02 191.65 454.46 202.19 439.62 203.57C433.19 204.17 420.96 211.26 431.86 211.26H501.46V203.57H498.26C480.14 203.57 474.9 194.81 474.9 168.77H474.88V139.78L519.22 108.92V146.65L537.11 134.31V90.36L519.22 102.7V102.71Z" fill="white"/>
<path d="M418.95 164.85V170.25C418.95 193.73 390.68 203.56 390.68 203.56H390.14C379.37 203.56 370.39 190.39 370.39 181.04V82.06L409.84 54.85V48.78L370.39 76V18.94V2.69L323.5 37.37C322.4 38.19 323.34 39.89 324.63 39.41C328.28 38.02 332.74 35.17 337.44 32.63C344.25 28.96 352.51 33.96 352.51 41.69V88.33L334.54 100.72V106.79L352.51 94.4V150.81H352.52V181.24C352.52 197.46 361.71 211.26 376.98 211.26H393.63C415.81 202.01 436.86 189.23 436.86 163.7V152.51L418.97 164.85H418.95Z" fill="white"/>
<path d="M653.48 203.57C635.36 203.57 630.12 194.81 630.12 168.77H630.1V164.29C630.1 164.09 630.1 163.9 630.1 163.7V108.98C630.1 90.79 622.74 83.58 612.21 89.01L564.64 121.83L546.55 134.07V166.31L564.64 153.83V128.33L594.28 107.7C601.85 102.43 612.21 103.24 612.21 123.75V137.24L546.55 182.53V193.17C546.55 203.16 558.55 211.26 570.46 211.26H593.19C600.4 208.25 606.81 205.3 612.2 201.67C612.2 203.56 616.92 211.26 626.57 211.26H656.66V203.57H653.46H653.48ZM592.44 203.57H583.78C573.22 203.57 564.65 195.01 564.65 184.44V176.14L612.22 143.33V170.26C612.22 197.1 592.44 203.57 592.44 203.57Z" fill="white"/>
<path d="M733.02 164.85V170.25C733.02 193.73 704.75 203.56 704.75 203.56H704.21C693.44 203.56 684.46 190.39 684.46 181.04V82.06L723.91 54.85V48.78L684.46 76V18.94V2.69L637.57 37.37C636.47 38.19 637.41 39.89 638.7 39.41C642.35 38.02 646.81 35.17 651.51 32.63C658.32 28.96 666.58 33.96 666.58 41.69V88.33L648.61 100.72V106.79L666.58 94.4V150.81H666.59V181.24C666.59 197.46 675.78 211.26 691.05 211.26H707.7C729.88 202.01 750.93 189.23 750.93 163.7V152.51L733.04 164.85H733.02Z" fill="white"/>
<path d="M813.05 203.57C799.05 203.57 789.69 194.81 789.69 168.77V69.41V53.16L742.8 87.84C741.7 88.66 742.64 90.36 743.93 89.88C747.58 88.49 752.04 85.64 756.74 83.1C763.55 79.43 771.81 84.43 771.81 92.16V170.52C771.81 191.65 764.53 203.57 753.09 203.57C753.09 203.57 748.35 203.2 745.67 203.57C739.28 204.45 727.01 211.26 737.91 211.26H826.42V203.57H813.06H813.05Z" fill="white"/>
<path d="M768.01 26.99V44.12L788.93 28.78V2.69L775.24 12.73C770.7 16.06 768.02 21.35 768.02 26.99H768.01Z" fill="white"/>
<path d="M115.14 5.09C112 -0.229997 106.87 -1.45 100.62 1.76L17.89 58.86L0 71.21V164.07C0 197.25 22.59 211.27 40.48 211.27H75.77C97.95 202.02 118.52 193.32 118.52 163.71V139.72L100.63 152.06V170.26C100.63 197.1 75.01 203.57 75.01 203.57H52.56C37.08 203.57 17.9 196.21 17.9 160.88V65.31L84.48 19.37C87.97 17.5 91.81 17.01 94.87 19.08C96.13 19.93 97.26 21.22 98.17 23.03C99.68 26 100.61 30.37 100.61 36.52V59.06L118.5 46.72V21.74C118.5 14.33 117.28 8.75 115.12 5.1L115.14 5.09Z" fill="white"/>
<path d="M899.43 91.7C896.29 86.38 891.16 85.16 884.91 88.37L818.66 134.1V164.06C818.66 197.24 841.25 211.26 859.14 211.26C859.14 211.26 902.8 199.05 902.8 163.7V108.35C902.8 100.94 901.58 95.36 899.42 91.71L899.43 91.7ZM884.92 152.06V170.26C884.92 197.1 859.3 203.57 859.3 203.57H856.79C851.48 203.18 836.56 196.21 836.56 160.88V128.2L868.78 105.98C872.27 104.11 876.11 103.62 879.17 105.69C880.43 106.54 881.56 107.83 882.47 109.64C883.98 112.61 884.91 116.98 884.91 123.13V152.06H884.92Z" fill="white"/>
</g>
<defs>
<clipPath id="clip0_1_32">
<rect width="902.81" height="211.26" fill="white"/>
</clipPath>
</defs>
</svg>
