<svg width="1037" height="212" viewBox="0 0 1037 212" fill="none" xmlns="http://www.w3.org/2000/svg">
<g clip-path="url(#clip0_1_16)">
<path d="M252.33 203.57C238.33 203.57 228.97 194.81 228.97 168.77V69.41V53.16L182.08 87.84C180.98 88.66 181.92 90.36 183.21 89.88C186.86 88.49 191.32 85.64 196.02 83.1C202.83 79.43 211.09 84.43 211.09 92.16V170.52C211.09 191.65 203.81 203.57 192.37 203.57C192.37 203.57 187.63 203.2 184.95 203.57C178.56 204.45 166.29 211.26 177.19 211.26H265.7V203.57H252.34H252.33Z" fill="white"/>
<path d="M207.3 26.99V44.12L228.22 28.78V2.69L214.53 12.73C209.99 16.06 207.31 21.35 207.31 26.99H207.3Z" fill="white"/>
<path d="M350.12 120.73V108.98C350.12 90.79 342.76 83.58 332.23 89.01L284.66 121.83L266.57 134.07V159.9C266.57 175.75 284.36 185.09 297.4 176.09L332.22 152.07V170.27C332.22 197.11 312.44 203.58 312.44 203.58H305.87C295.88 203.58 287.66 196.08 286.48 186.41H268.56C270.3 200.29 279.07 211.28 292.69 211.28H313.2C335.38 202.03 350.11 193.33 350.11 163.72V133.66L332.22 146L300.3 168.02C293.68 172.59 284.65 167.85 284.65 159.8V128.35L314.29 107.72C321.86 102.45 332.22 103.26 332.22 123.77V133.09L350.11 120.74L350.12 120.73Z" fill="white"/>
<path d="M546.4 102.71L502.06 133.3V90.37L455.17 125.05C454.07 125.87 455.01 127.57 456.3 127.09C459.95 125.7 464.41 122.85 469.11 120.31C475.92 116.64 484.18 121.64 484.18 129.37L484.2 170.52C484.2 191.65 481.64 202.19 466.8 203.57C460.37 204.17 448.14 211.26 459.04 211.26H528.64V203.57H525.44C507.32 203.57 502.08 194.81 502.08 168.77H502.06V139.78L546.4 108.92V146.65L564.29 134.31V90.36L546.4 102.7V102.71Z" fill="white"/>
<path d="M640.1 203.57C626.1 203.57 616.74 194.81 616.74 168.77V69.41V53.16L569.85 87.84C568.75 88.66 569.69 90.36 570.98 89.88C574.63 88.49 579.09 85.64 583.79 83.1C590.6 79.43 598.86 84.43 598.86 92.16V170.52C598.86 191.65 591.58 203.57 580.14 203.57C580.14 203.57 575.4 203.2 572.72 203.57C566.33 204.45 554.06 211.26 564.96 211.26H653.47V203.57H640.11H640.1Z" fill="white"/>
<path d="M595.07 26.99V44.12L615.99 28.78V2.69L602.3 12.73C597.76 16.06 595.08 21.35 595.08 26.99H595.07Z" fill="white"/>
<path d="M161.5 5.09C158.36 -0.229997 153.23 -1.45 146.98 1.76L0.420005 102.64C-0.519995 103.28 0.250005 104.74 1.31 104.32C8.13 101.59 17.9 95.83 27.82 92.25C36.44 89.14 45.5 95.07 46.36 103.94L46.43 170.52C46.43 189.46 37.15 203.57 25.71 203.57C25.71 203.57 17.58 203.2 14.9 203.57C8.51 204.45 -3.75999 211.26 7.14 211.26H122.13C144.31 202.01 164.88 193.31 164.88 163.7V21.73C164.88 14.32 163.66 8.74 161.5 5.09ZM146.99 170.26C146.99 197.1 121.37 203.57 121.37 203.57H98.92C98.85 203.57 98.79 203.57 98.72 203.57H89.69C75.69 203.57 64.33 192.96 64.33 168.77C64.33 168.77 64.33 78.62 64.33 65.25L130.84 19.37C134.33 17.5 138.17 17.01 141.23 19.08C142.49 19.93 143.62 21.22 144.53 23.03C146.04 26 146.97 30.37 146.97 36.52V170.26H146.99Z" fill="white"/>
<path d="M431.3 170.26C431.3 197.1 410.98 203.57 410.98 203.57H404.78C393.75 203.57 384.31 194.91 384.22 184.2V128.33L413.86 107.7C421.43 102.43 431.79 103.24 431.79 123.75V133.07L449.68 120.72V108.97C449.68 90.78 442.32 83.57 431.79 89L366.13 134.06V181.24C366.13 197.46 375.57 211.26 391.25 211.26H411.77C434.56 202.01 449.68 193.31 449.68 163.7V152.51L431.3 164.85V170.25V170.26Z" fill="white"/>
<path d="M1018.9 102.71L974.56 133.3V90.37L927.67 125.05C926.57 125.87 927.51 127.57 928.8 127.09C932.45 125.7 936.91 122.85 941.61 120.31C948.42 116.64 956.68 121.64 956.68 129.37L956.7 170.52C956.7 191.65 954.14 202.19 939.3 203.57C932.87 204.17 920.64 211.26 931.54 211.26H974.57V152.54V139.79L1018.91 108.93V211.27H1036.8V90.37L1018.91 102.71H1018.9Z" fill="white"/>
<path d="M803.52 102.71L763.18 130.54V90.37L745.29 102.71L704.95 130.54V90.37L658.06 125.05C656.96 125.87 657.9 127.57 659.19 127.09C662.84 125.7 667.3 122.85 672 120.31C678.81 116.64 687.07 121.64 687.07 129.37L687.09 170.52C687.09 191.65 684.53 202.19 669.69 203.57C663.26 204.17 651.03 211.26 661.93 211.26H704.96V137L745.3 108.92V211.26H767.19H763.19V137L803.53 108.92V211.26H821.42V90.36L803.53 102.7L803.52 102.71Z" fill="white"/>
<path d="M901.64 97.71L854.07 130.53L838.19 141.49V181.25C838.19 197.47 847.38 211.27 862.65 211.27H882.63C904.81 202.02 919.54 193.32 919.54 163.71V152.52L901.65 164.86V170.26C901.65 197.1 881.87 203.57 881.87 203.57H875.83C865.04 203.57 856.29 194.82 856.29 184.03L918.36 141.21L919.55 140.39V85.37L901.66 97.71H901.64ZM856.28 135.5L901.64 103.93V146.66L856.28 177.95V135.5Z" fill="white"/>
</g>
<defs>
<clipPath id="clip0_1_16">
<rect width="1036.79" height="211.26" fill="white"/>
</clipPath>
</defs>
</svg>
