<svg width="1018" height="212" viewBox="0 0 1018 212" fill="none" xmlns="http://www.w3.org/2000/svg">
<g clip-path="url(#clip0_1_46)">
<path d="M262.83 91.7C259.69 86.38 254.56 85.16 248.31 88.37L182.06 134.1V164.06C182.06 197.24 204.65 211.26 222.54 211.26C222.54 211.26 266.2 199.05 266.2 163.7V108.35C266.2 100.94 264.98 95.36 262.82 91.71L262.83 91.7ZM248.32 152.06V170.26C248.32 197.1 222.7 203.57 222.7 203.57H220.19C214.88 203.18 199.96 196.21 199.96 160.88V128.2L232.18 105.98C235.67 104.11 239.51 103.62 242.57 105.69C243.83 106.54 244.96 107.83 245.87 109.64C247.38 112.61 248.31 116.98 248.31 123.13V152.06H248.32Z" fill="white"/>
<path d="M522.91 203.57C508.91 203.57 499.55 194.81 499.55 168.77V69.41V53.16L452.66 87.84C451.56 88.66 452.5 90.36 453.79 89.88C457.44 88.49 461.9 85.64 466.6 83.1C473.41 79.43 481.67 84.43 481.67 92.16V170.52C481.67 191.65 474.39 203.57 462.95 203.57C462.95 203.57 458.21 203.2 455.53 203.57C449.14 204.45 436.87 211.26 447.77 211.26H536.28V203.57H522.92H522.91Z" fill="white"/>
<path d="M477.87 26.99V44.12L498.79 28.78V2.69L485.1 12.73C480.56 16.06 477.88 21.35 477.88 26.99H477.87Z" fill="white"/>
<path d="M769.48 203.57C751.36 203.57 746.12 194.81 746.12 168.77H746.1V164.29C746.1 164.09 746.1 163.9 746.1 163.7V108.98C746.1 90.79 738.74 83.58 728.21 89.01L680.64 121.83L662.55 134.07V166.31L680.64 153.83V128.33L710.28 107.7C717.85 102.43 728.21 103.24 728.21 123.75V137.24L662.55 182.53V193.17C662.55 203.16 674.55 211.26 686.46 211.26H709.19C716.4 208.25 722.81 205.3 728.2 201.67C728.2 203.56 732.92 211.26 742.57 211.26H772.66V203.57H769.46H769.48ZM708.44 203.57H699.78C689.22 203.57 680.65 195.01 680.65 184.44V176.14L728.22 143.33V170.26C728.22 197.1 708.44 203.57 708.44 203.57Z" fill="white"/>
<path d="M846.59 164.85V170.25C846.59 193.73 818.32 203.56 818.32 203.56H817.78C807.01 203.56 798.03 190.39 798.03 181.04V82.06L837.48 54.85V48.78L798.03 76V18.94V2.69L751.14 37.37C750.04 38.19 750.98 39.89 752.27 39.41C755.92 38.02 760.38 35.17 765.08 32.63C771.89 28.96 780.15 33.96 780.15 41.69V88.33L762.18 100.72V106.79L780.15 94.4V150.81H780.16V181.24C780.16 197.46 789.35 211.26 804.62 211.26H821.27C843.45 202.01 864.5 189.23 864.5 163.7V152.51L846.61 164.85H846.59Z" fill="white"/>
<path d="M928.62 203.57C914.62 203.57 905.26 194.81 905.26 168.77V69.41V53.16L858.37 87.84C857.27 88.66 858.21 90.36 859.5 89.88C863.15 88.49 867.61 85.64 872.31 83.1C879.12 79.43 887.38 84.43 887.38 92.16V170.52C887.38 191.65 880.1 203.57 868.66 203.57C868.66 203.57 863.92 203.2 861.24 203.57C854.85 204.45 842.58 211.26 853.48 211.26H941.99V203.57H928.63H928.62Z" fill="white"/>
<path d="M883.58 26.99V44.12L904.5 28.78V2.69L890.81 12.73C886.27 16.06 883.59 21.35 883.59 26.99H883.58Z" fill="white"/>
<path d="M1014.01 91.7C1010.87 86.38 1005.74 85.16 999.49 88.37L933.24 134.1V164.06C933.24 197.24 955.83 211.26 973.72 211.26C973.72 211.26 1017.38 199.05 1017.38 163.7V108.35C1017.38 100.94 1016.16 95.36 1014 91.71L1014.01 91.7ZM999.49 152.06V170.26C999.49 197.1 973.87 203.57 973.87 203.57H971.36C966.05 203.18 951.13 196.21 951.13 160.88V128.2L983.35 105.98C986.84 104.11 990.68 103.62 993.74 105.69C995 106.54 996.13 107.83 997.04 109.64C998.55 112.61 999.48 116.98 999.48 123.13V152.06H999.49Z" fill="white"/>
<path d="M161.5 5.09C158.36 -0.229997 153.23 -1.45 146.98 1.76L0.420005 102.64C-0.519995 103.28 0.250005 104.74 1.31 104.32C8.13 101.59 17.9 95.83 27.82 92.25C36.44 89.14 45.5 95.07 46.36 103.94L46.43 170.52C46.43 189.46 37.15 203.57 25.71 203.57C25.71 203.57 17.58 203.2 14.9 203.57C8.51 204.45 -3.75999 211.26 7.14 211.26H122.13C144.31 202.01 164.88 193.31 164.88 163.7V21.73C164.88 14.32 163.66 8.74 161.5 5.09ZM146.99 170.26C146.99 197.1 121.37 203.57 121.37 203.57H98.92C98.85 203.57 98.79 203.57 98.72 203.57H89.69C75.69 203.57 64.33 192.96 64.33 168.77C64.33 168.77 64.33 78.62 64.33 65.25L130.84 19.37C134.33 17.5 138.17 17.01 141.23 19.08C142.49 19.93 143.62 21.22 144.53 23.03C146.04 26 146.97 30.37 146.97 36.52V170.26H146.99Z" fill="white"/>
<path d="M630.75 102.71L586.41 133.3V90.37L539.52 125.05C538.42 125.87 539.36 127.57 540.65 127.09C544.3 125.7 548.76 122.85 553.46 120.31C560.27 116.64 568.53 121.64 568.53 129.37L568.55 170.52C568.55 191.65 565.99 202.19 551.15 203.57C544.72 204.17 532.49 211.26 543.39 211.26H586.42V152.54V139.79L630.76 108.93V211.27H648.65V90.37L630.76 102.71H630.75Z" fill="white"/>
<path d="M417.45 102.71L377.11 130.54V90.37L359.22 102.71L318.88 130.54V90.37L271.99 125.05C270.89 125.87 271.83 127.57 273.12 127.09C276.77 125.7 281.23 122.85 285.93 120.31C292.74 116.64 301 121.64 301 129.37L301.02 170.52C301.02 191.65 298.46 202.19 283.62 203.57C277.19 204.17 264.96 211.26 275.86 211.26H318.89V137L359.23 108.92V211.26H381.12H377.12V137L417.46 108.92V211.26H435.35V90.36L417.46 102.7L417.45 102.71Z" fill="white"/>
</g>
<defs>
<clipPath id="clip0_1_46">
<rect width="1017.38" height="211.26" fill="white"/>
</clipPath>
</defs>
</svg>
