<svg width="1262" height="297" viewBox="0 0 1262 297" fill="none" xmlns="http://www.w3.org/2000/svg">
<g clip-path="url(#clip0_1_75)">
<path d="M526.65 200.87C512.65 200.87 503.29 192.11 503.29 166.07V66.71V50.46L456.4 85.14C455.3 85.96 456.24 87.66 457.53 87.18C461.18 85.79 465.64 82.94 470.34 80.4C477.15 76.73 485.41 81.73 485.41 89.46V167.82C485.41 188.95 478.13 200.87 466.69 200.87C466.69 200.87 461.95 200.5 459.27 200.87C452.88 201.75 440.61 208.56 451.51 208.56H540.02V200.87H526.66H526.65Z" fill="white"/>
<path d="M481.61 24.3V41.43L502.53 26.09V0L488.84 10.04C484.3 13.37 481.62 18.66 481.62 24.3H481.61Z" fill="white"/>
<path d="M794.22 162.16V167.56C794.22 191.04 765.95 200.87 765.95 200.87H765.41C754.64 200.87 745.66 187.7 745.66 178.35V79.37L785.11 52.16V46.09L745.66 73.31V16.25V0L698.77 34.68C697.67 35.5 698.61 37.2 699.9 36.72C703.55 35.33 708.01 32.48 712.71 29.94C719.52 26.27 727.78 31.27 727.78 39V85.64L709.81 98.03V104.1L727.78 91.71V148.12H727.79V178.55C727.79 194.77 736.98 208.57 752.25 208.57H768.9C791.08 199.32 812.13 186.54 812.13 161.01V149.82L794.24 162.16H794.22Z" fill="white"/>
<path d="M875.1 200.87C861.1 200.87 851.74 192.11 851.74 166.07V66.71V50.46L804.85 85.14C803.75 85.96 804.69 87.66 805.98 87.18C809.63 85.79 814.09 82.94 818.79 80.4C825.6 76.73 833.86 81.73 833.86 89.46V167.82C833.86 188.95 826.58 200.87 815.14 200.87C815.14 200.87 810.4 200.5 807.72 200.87C801.33 201.75 789.06 208.56 799.96 208.56H888.47V200.87H875.11H875.1Z" fill="white"/>
<path d="M830.06 24.3V41.43L850.98 26.09V0L837.29 10.04C832.75 13.37 830.07 18.66 830.07 24.3H830.06Z" fill="white"/>
<path d="M962.09 89.01C958.95 83.69 953.82 82.47 947.57 85.68L881.32 131.41V161.37C881.32 194.55 903.91 208.57 921.8 208.57C921.8 208.57 965.46 196.36 965.46 161.01V105.66C965.46 98.25 964.24 92.67 962.08 89.02L962.09 89.01ZM947.58 149.36V167.56C947.58 194.4 921.96 200.87 921.96 200.87H919.45C914.14 200.48 899.22 193.51 899.22 158.18V125.5L931.44 103.28C934.93 101.41 938.77 100.92 941.83 102.99C943.09 103.84 944.22 105.13 945.13 106.94C946.64 109.91 947.57 114.28 947.57 120.43V149.36H947.58Z" fill="white"/>
<path d="M1164.1 200.87C1150.1 200.87 1140.74 192.11 1140.74 166.07V66.71V50.46L1093.85 85.14C1092.75 85.96 1093.69 87.66 1094.98 87.18C1098.63 85.79 1103.09 82.94 1107.79 80.4C1114.6 76.73 1122.86 81.73 1122.86 89.46V167.82C1122.86 188.95 1115.58 200.87 1104.14 200.87C1104.14 200.87 1099.4 200.5 1096.72 200.87C1090.33 201.75 1078.06 208.56 1088.96 208.56H1177.47V200.87H1164.11H1164.1Z" fill="white"/>
<path d="M1119.07 24.3V41.43L1139.99 26.09V0L1126.3 10.04C1121.76 13.37 1119.08 18.66 1119.08 24.3H1119.07Z" fill="white"/>
<path d="M1261.01 118.03V106.28C1261.01 88.09 1253.65 80.88 1243.12 86.31L1195.55 119.13L1177.46 131.37V157.2C1177.46 173.05 1195.25 182.39 1208.29 173.39L1243.11 149.37V167.57C1243.11 194.41 1223.33 200.88 1223.33 200.88H1216.76C1206.77 200.88 1198.55 193.38 1197.37 183.71H1179.45C1181.19 197.59 1189.96 208.58 1203.58 208.58H1224.09C1246.27 199.33 1261 190.63 1261 161.02V130.96L1243.11 143.3L1211.19 165.32C1204.57 169.89 1195.54 165.15 1195.54 157.1V125.65L1225.18 105.02C1232.75 99.75 1243.11 100.56 1243.11 121.07V130.39L1261 118.04L1261.01 118.03Z" fill="white"/>
<path d="M617.56 118.03V106.28C617.56 88.09 610.2 80.88 599.67 86.31L552.1 119.13L534.01 131.37V157.2C534.01 173.05 551.8 182.39 564.84 173.39L599.66 149.37V167.57C599.66 194.41 579.88 200.88 579.88 200.88H573.31C563.32 200.88 555.1 193.38 553.92 183.71H536C537.74 197.59 546.51 208.58 560.13 208.58H580.64C602.82 199.33 617.55 190.63 617.55 161.02V130.96L599.66 143.3L567.74 165.32C561.12 169.89 552.09 165.15 552.09 157.1V125.65L581.73 105.02C589.3 99.75 599.66 100.56 599.66 121.07V130.39L617.55 118.04L617.56 118.03Z" fill="white"/>
<path d="M693.37 200.87C679.37 200.87 670.01 192.11 670.01 166.07V66.71V50.46L623.12 85.14C622.02 85.96 622.96 87.66 624.25 87.18C627.9 85.79 632.36 82.94 637.06 80.4C643.87 76.73 652.13 81.73 652.13 89.46V167.82C652.13 188.95 644.85 200.87 633.41 200.87C633.41 200.87 628.67 200.5 625.99 200.87C619.6 201.75 607.33 208.56 618.23 208.56H706.74V200.87H693.38H693.37Z" fill="white"/>
<path d="M648.33 24.3V41.43L669.25 26.09V0L655.56 10.04C651.02 13.37 648.34 18.66 648.34 24.3H648.33Z" fill="white"/>
<path d="M61.5301 53.43C61.5301 29.25 72.8801 18.63 86.8901 18.63H104.73V10.94H4.35008C-6.54992 10.94 5.72008 17.75 12.1101 18.63C14.7901 19 22.9201 18.63 22.9201 18.63C34.3601 18.63 43.6401 32.74 43.6401 51.68V167.83C43.6401 186.77 34.3601 200.88 22.9201 200.88C22.9201 200.88 14.7901 200.51 12.1101 200.88C5.72008 201.76 -6.54992 208.57 4.35008 208.57H104.73V200.88H86.8901C72.8901 200.88 61.5301 190.27 61.5301 166.08V53.43Z" fill="white"/>
<path d="M201.79 100.02L157.45 130.61V87.68L110.56 122.36C109.46 123.18 110.4 124.88 111.69 124.4C115.34 123.01 119.8 120.16 124.5 117.62C131.31 113.95 139.57 118.95 139.57 126.68L139.59 167.83C139.59 188.96 137.03 199.5 122.19 200.88C115.76 201.48 103.53 208.57 114.43 208.57H157.46V149.85V137.1L201.8 106.24V208.58H219.69V87.68L201.8 100.02H201.79Z" fill="white"/>
<path d="M345.76 259.52C342.11 260.91 337.65 263.76 332.95 266.3C326.14 269.97 317.88 264.97 317.88 257.24V105.65C317.88 98.24 316.66 92.66 314.5 89.01C311.36 83.69 306.23 82.47 299.98 85.68L233.73 131.41V161.37C233.73 194.55 256.32 208.57 274.21 208.57C274.21 208.57 287.92 204.73 299.98 195.14V279.99V296.24L346.87 261.56C347.97 260.74 347.03 259.04 345.74 259.52H345.76ZM300 167.56C300 194.4 274.38 200.87 274.38 200.87H271.87C266.56 200.48 251.64 193.51 251.64 158.18V125.5L283.86 103.28C287.35 101.41 291.19 100.92 294.25 102.99C295.51 103.84 296.64 105.13 297.55 106.94C299.06 109.91 299.99 114.28 299.99 120.43V167.56H300Z" fill="white"/>
<path d="M441.1 200.87C422.98 200.87 417.74 192.11 417.74 166.07H417.72V77.97L370.82 112.65C369.72 113.47 370.66 115.17 371.95 114.69C375.6 113.3 380.06 110.45 384.76 107.91C391.57 104.24 399.83 109.24 399.83 116.97L399.85 167.55C399.85 194.39 374.23 200.86 374.23 200.86H371.72C366.41 200.47 351.7 193.5 351.7 158.17V118.9L333.6 131.39V161.35C333.6 194.53 356.19 208.55 374.08 208.55C374.08 208.55 387.79 204.71 399.85 195.12C399.85 195.12 402.17 208.55 414.22 208.55H444.31V200.86H441.11L441.1 200.87Z" fill="white"/>
<path d="M1060.6 100.02L1016.26 130.61V87.68L969.37 122.36C968.27 123.18 969.21 124.88 970.5 124.4C974.15 123.01 978.61 120.16 983.31 117.62C990.12 113.95 998.38 118.95 998.38 126.68L998.4 167.83C998.4 188.96 995.84 199.5 981 200.88C974.57 201.48 962.34 208.57 973.24 208.57H1016.27V149.85V137.1L1060.61 106.24V208.58H1078.5V87.68L1060.61 100.02H1060.6Z" fill="white"/>
</g>
<defs>
<clipPath id="clip0_1_75">
<rect width="1261.01" height="296.24" fill="white"/>
</clipPath>
</defs>
</svg>
