<svg width="908" height="209" viewBox="0 0 908 209" fill="none" xmlns="http://www.w3.org/2000/svg">
<g clip-path="url(#clip0_1_62)">
<path d="M252.58 200.87C238.58 200.87 229.22 192.11 229.22 166.07V66.71V50.46L182.33 85.14C181.23 85.96 182.17 87.66 183.46 87.18C187.11 85.79 191.57 82.94 196.27 80.4C203.08 76.73 211.34 81.73 211.34 89.46V167.82C211.34 188.95 204.06 200.87 192.62 200.87C192.62 200.87 187.88 200.5 185.2 200.87C178.81 201.75 166.54 208.56 177.44 208.56H265.95V200.87H252.59H252.58Z" fill="white"/>
<path d="M207.54 24.3V41.43L228.46 26.09V0L214.77 10.04C210.23 13.37 207.55 18.66 207.55 24.3H207.54Z" fill="white"/>
<path d="M373.08 100.02L325.51 132.84V16.25V0L278.62 34.68C277.52 35.5 278.46 37.2 279.75 36.72C283.4 35.33 287.86 32.48 292.56 29.94C299.37 26.27 307.63 31.27 307.63 39V167.82C307.63 188.95 300.35 200.87 288.91 200.87C288.91 200.87 288.08 200.71 285.41 201.08C279.02 201.96 267.84 208.57 278.74 208.57H354.09C376.27 199.32 390.99 190.62 390.99 161.01V87.68L373.1 100.02H373.08ZM373.08 167.56C373.08 194.4 353.3 200.87 353.3 200.87H348.87C334.87 200.87 325.51 192.11 325.51 166.07V139.33L373.08 106.22V167.55V167.56Z" fill="white"/>
<path d="M581.62 100.02L537.28 130.61V87.68L490.39 122.36C489.29 123.18 490.23 124.88 491.52 124.4C495.17 123.01 499.63 120.16 504.33 117.62C511.14 113.95 519.4 118.95 519.4 126.68L519.42 167.83C519.42 188.96 516.86 199.5 502.02 200.88C495.59 201.48 483.36 208.57 494.26 208.57H563.86V200.88H560.66C542.54 200.88 537.3 192.12 537.3 166.08H537.28V137.09L581.62 106.23V143.96L599.51 131.62V87.67L581.62 100.01V100.02Z" fill="white"/>
<path d="M691.77 162.16V167.56C691.77 191.04 663.5 200.87 663.5 200.87H662.96C652.19 200.87 643.21 187.7 643.21 178.35V79.37L682.66 52.16V46.09L643.21 73.31V16.25V0L596.32 34.68C595.22 35.5 596.16 37.2 597.45 36.72C601.1 35.33 605.56 32.48 610.26 29.94C617.07 26.27 625.33 31.27 625.33 39V85.64L607.36 98.03V104.1L625.33 91.71V148.12H625.34V178.55C625.34 194.77 634.53 208.57 649.8 208.57H666.45C688.63 199.32 709.68 186.54 709.68 161.01V149.82L691.79 162.16H691.77Z" fill="white"/>
<path d="M823 200.87C804.88 200.87 799.64 192.11 799.64 166.07H799.62V161.59C799.62 161.39 799.62 161.2 799.62 161V106.28C799.62 88.09 792.26 80.88 781.73 86.31L734.16 119.13L716.07 131.37V163.61L734.16 151.13V125.63L763.8 105C771.37 99.73 781.73 100.54 781.73 121.05V134.54L716.07 179.83V190.47C716.07 200.46 728.07 208.56 739.98 208.56H762.71C769.92 205.55 776.33 202.6 781.72 198.97C781.72 200.86 786.44 208.56 796.09 208.56H826.18V200.87H822.98H823ZM761.95 200.87H753.29C742.73 200.87 734.16 192.31 734.16 181.74V173.44L781.73 140.63V167.56C781.73 194.4 761.95 200.87 761.95 200.87Z" fill="white"/>
<path d="M907.6 118.03V106.28C907.6 88.09 900.24 80.88 889.71 86.31L842.14 119.13L824.05 131.37V157.2C824.05 173.05 841.84 182.39 854.88 173.39L889.7 149.37V167.57C889.7 194.41 869.92 200.88 869.92 200.88H863.35C853.36 200.88 845.14 193.38 843.96 183.71H826.04C827.78 197.59 836.55 208.58 850.17 208.58H870.68C892.86 199.33 907.59 190.63 907.59 161.02V130.96L889.7 143.3L857.78 165.32C851.16 169.89 842.13 165.15 842.13 157.1V125.65L871.77 105.02C879.34 99.75 889.7 100.56 889.7 121.07V130.39L907.59 118.04L907.6 118.03Z" fill="white"/>
<path d="M149.06 193.76C140.99 201.37 130.35 200.88 119.25 200.88H89.68C75.68 200.88 64.32 190.27 64.32 166.08V49.5C64.32 49.5 64.32 49.5 64.32 49.51V0L0.420005 43.77C-0.519995 44.41 0.250005 45.87 1.31 45.45C8.13 42.72 17.9 36.96 27.82 33.38C36.88 30.11 46.43 36.82 46.43 46.45C46.43 91.58 46.43 167.82 46.43 167.82C46.43 186.76 37.15 200.87 25.71 200.87C25.71 200.87 17.58 200.5 14.9 200.87C8.51 201.75 -3.75999 208.56 7.14 208.56H164.88V165.73H164.11C161.98 174.17 154.02 189.07 149.06 193.75V193.76Z" fill="white"/>
<path d="M465.83 95.02L418.26 127.84L402.38 138.8V178.56C402.38 194.78 411.57 208.58 426.84 208.58H446.82C469 199.33 483.73 190.63 483.73 161.02V149.83L465.84 162.17V167.57C465.84 194.41 446.06 200.88 446.06 200.88H440.02C429.23 200.88 420.48 192.13 420.48 181.34L482.55 138.52L483.74 137.7V82.68L465.85 95.02H465.83ZM420.47 132.8L465.83 101.23V143.96L420.47 175.25V132.8Z" fill="white"/>
</g>
<defs>
<clipPath id="clip0_1_62">
<rect width="907.6" height="208.57" fill="white"/>
</clipPath>
</defs>
</svg>
