<?xml version="1.0" encoding="UTF-8"?>
<svg id="_레이어_2" data-name="레이어 2" xmlns="http://www.w3.org/2000/svg" viewBox="0 0 1222.69 211.26">
  <defs>
    <style>
      .cls-1 {
        fill: none;
      }
    </style>
  </defs>
  <g id="kerning">
    <g>
      <path d="M370.76,120.73v-11.75c0-18.19-7.36-25.4-17.89-19.97l-47.57,32.82-18.09,12.24v25.83c0,15.85,17.79,25.19,30.83,16.19l34.82-24.02v18.2c0,26.84-19.78,33.31-19.78,33.31h-6.57c-9.99,0-18.21-7.5-19.39-17.17h-17.92c1.74,13.88,10.51,24.87,24.13,24.87h20.51c22.18-9.25,36.91-17.95,36.91-47.56v-30.06l-17.89,12.34-31.92,22.02c-6.62,4.57-15.65-.17-15.65-8.22v-31.45l29.64-20.63c7.57-5.27,17.93-4.46,17.93,16.05v9.32s17.89-12.35,17.89-12.35Z"/>
      <path d="M574.95,120.73v-11.75c0-18.19-7.36-25.4-17.89-19.97l-47.57,32.82-18.09,12.24v25.83c0,15.85,17.79,25.19,30.83,16.19l34.82-24.02v18.2c0,26.84-19.78,33.31-19.78,33.31h-6.57c-9.99,0-18.21-7.5-19.39-17.17h-17.92c1.74,13.88,10.51,24.87,24.13,24.87h20.51c22.18-9.25,36.91-17.95,36.91-47.56v-30.06l-17.89,12.34-31.92,22.02c-6.62,4.57-15.65-.17-15.65-8.22v-31.45l29.64-20.63c7.57-5.27,17.93-4.46,17.93,16.05v9.32s17.89-12.35,17.89-12.35Z"/>
      <g>
        <path d="M751.16,203.57c-14,0-23.36-8.76-23.36-34.8v-99.36h0v-16.25l-46.89,34.68c-1.1.82-.16,2.52,1.13,2.04,3.65-1.39,8.11-4.24,12.81-6.78,6.81-3.67,15.07,1.33,15.07,9.06v78.36c0,21.13-7.28,33.05-18.72,33.05,0,0-4.74-.37-7.42,0-6.39.88-18.66,7.69-7.76,7.69h88.51v-7.69h-13.36Z"/>
        <path d="M706.12,26.99v17.13l20.92-15.34V2.69l-13.69,10.04c-4.54,3.33-7.22,8.62-7.22,14.26Z"/>
      </g>
      <path d="M1054.29,164.85v5.4c0,23.48-28.27,33.31-28.27,33.31h-.54c-10.77,0-19.75-13.17-19.75-22.52v-98.98l39.45-27.21v-6.07l-39.45,27.22V18.94h0V2.69l-46.89,34.68c-1.1.82-.16,2.52,1.13,2.04,3.65-1.39,8.11-4.24,12.81-6.78,6.81-3.67,15.07,1.33,15.07,9.06v46.64l-17.97,12.39v6.07l17.97-12.39v56.41h.01v30.43c0,16.22,9.19,30.02,24.46,30.02h16.65c22.18-9.25,43.23-22.03,43.23-47.56v-11.19l-17.89,12.34Z"/>
      <g>
        <path d="M1132.48,203.57c-14,0-23.36-8.76-23.36-34.8v-99.36h0v-16.25l-46.89,34.68c-1.1.82-.16,2.52,1.13,2.04,3.65-1.39,8.11-4.24,12.81-6.78,6.81-3.67,15.07,1.33,15.07,9.06v78.36c0,21.13-7.28,33.05-18.72,33.05,0,0-4.74-.37-7.42,0-6.39.88-18.66,7.69-7.76,7.69h88.51v-7.69h-13.36Z"/>
        <path d="M1087.44,26.99v17.13l20.92-15.34V2.69l-13.69,10.04c-4.54,3.33-7.22,8.62-7.22,14.26Z"/>
      </g>
      <path d="M1219.31,91.7c-3.14-5.32-8.27-6.54-14.52-3.33l-66.25,45.73v29.96c0,33.18,22.59,47.2,40.48,47.2,0,0,43.66-12.21,43.66-47.56v-55.35c0-7.41-1.22-12.99-3.38-16.64ZM1204.79,152.06v18.2c0,26.84-25.62,33.31-25.62,33.31h-2.51c-5.31-.39-20.23-7.36-20.23-42.69v-32.68l32.22-22.22c3.49-1.87,7.33-2.36,10.39-.29,1.26.85,2.39,2.14,3.3,3.95,1.51,2.97,2.44,7.34,2.44,13.49v28.93h0Z"/>
      <path d="M976.97,203.57c-18.12,0-23.36-8.76-23.36-34.8h-.02v-4.48c0-.2,0-.39,0-.59v-54.72c0-18.19-7.36-25.4-17.89-19.97l-47.57,32.82-18.09,12.24v32.24l18.09-12.48v-25.5l29.64-20.63c7.57-5.27,17.93-4.46,17.93,16.05v13.49s-65.66,45.29-65.66,45.29v10.64c0,9.99,12,18.09,23.91,18.09h22.73c7.21-3.01,13.62-5.96,19.01-9.59h0c0,1.89,4.72,9.59,14.37,9.59h30.09v-7.69h-3.2ZM915.92,203.57h-8.66c-10.56,0-19.13-8.56-19.13-19.13v-8.3l47.57-32.81v26.93c0,26.84-19.78,33.31-19.78,33.31Z"/>
      <path d="M843.5,164.85v5.4c0,23.48-28.27,33.31-28.27,33.31h-.54c-10.77,0-19.75-13.17-19.75-22.52v-98.98l39.45-27.21v-6.07l-39.45,27.22V18.94h0V2.69l-46.89,34.68c-1.1.82-.16,2.52,1.13,2.04,3.65-1.39,8.11-4.24,12.81-6.78,6.81-3.67,15.07,1.33,15.07,9.06v46.64l-17.97,12.39v6.07l17.97-12.39v56.41h.01v30.43c0,16.22,9.19,30.02,24.46,30.02h16.65c22.18-9.25,43.23-22.03,43.23-47.56v-11.19l-17.89,12.34Z"/>
      <path d="M488.2,203.57c-18.12,0-23.36-8.76-23.36-34.8h-.02v-88.1s-46.9,34.68-46.9,34.68c-1.1.82-.16,2.52,1.13,2.04,3.65-1.39,8.11-4.24,12.81-6.78,6.81-3.67,15.07,1.33,15.07,9.06l.02,50.58c0,26.84-25.62,33.31-25.62,33.31h-2.51c-5.31-.39-20.02-7.36-20.02-42.69v-39.27l-18.1,12.49v29.96c0,33.18,22.59,47.2,40.48,47.2,0,0,13.71-3.84,25.77-13.43,0,0,2.32,13.43,14.37,13.43h30.09v-7.69h-3.2Z"/>
      <path d="M652.28,170.26c0,26.84-20.32,33.31-20.32,33.31h-6.2c-11.03,0-20.47-8.66-20.56-19.37v-55.87l29.64-20.63c7.57-5.27,17.93-4.46,17.93,16.05v9.32s17.89-12.35,17.89-12.35v-11.75c0-18.19-7.36-25.4-17.89-19.97l-65.66,45.06v47.18c0,16.22,9.44,30.02,25.12,30.02h20.52c22.79-9.25,37.91-17.95,37.91-47.56v-11.19l-18.38,12.34v5.4Z"/>
      <path class="cls-1" d="M146.99,36.51c0-6.15-.94-10.51-2.44-13.49-.92-1.81-2.04-3.1-3.3-3.95-3.06-2.07-6.9-1.58-10.39.29l-66.51,45.88c0,9.19,0,54.61,0,82.15l82.66-57.02v-53.86Z"/>
      <path d="M179.06,203.57c-13.51,0-22.68-8.16-23.32-32.09h-.03v-48.47c0-17.9-7.12-25.15-17.39-20.21l17.39-11.99,9.17-6.32V21.73c0-7.41-1.22-12.99-3.38-16.64-3.14-5.32-8.27-6.54-14.52-3.33L.42,102.64c-.94.64-.17,2.1.89,1.68,6.82-2.73,16.59-8.49,26.51-12.07,8.62-3.11,17.68,2.82,18.54,11.69l.07,66.58c0,18.94-9.28,33.05-20.72,33.05,0,0-8.13-.37-10.81,0-6.39.88-18.66,7.69-7.76,7.69h57.19v-42.42s0-.04,0-.07c0,0,0-5.92,0-14.94l59.64-41.14c6.74-2.03,13.85,8.1,13.85,25.09v33.69h0v39.79h54.61v-7.69h-13.36ZM64.33,65.25l66.51-45.88c3.49-1.87,7.33-2.36,10.39-.29,1.26.85,2.39,2.14,3.3,3.95,1.51,2.97,2.44,7.34,2.44,13.49v53.86l-82.66,57.02c0-27.53,0-72.96,0-82.15Z"/>
      <path d="M259.07,97.71l-47.57,32.82h0s-15.88,10.96-15.88,10.96v39.76c0,16.22,9.19,30.02,24.46,30.02h19.98c22.18-9.25,36.91-17.95,36.91-47.56v-11.19l-17.89,12.34v5.4c0,26.84-19.78,33.31-19.78,33.31h-6.04c-10.79,0-19.54-8.75-19.54-19.54h0s62.07-42.82,62.07-42.82l1.19-.82v-55.02l-17.89,12.34ZM213.71,135.5l45.36-31.57v42.73l-45.36,31.29v-42.45Z"/>
    </g>
  </g>
</svg>