<svg width="970" height="209" viewBox="0 0 970 209" fill="none" xmlns="http://www.w3.org/2000/svg">
<g clip-path="url(#clip0_1_119)">
<path d="M260.66 200.87C246.66 200.87 237.3 192.11 237.3 166.07V66.71V50.46L190.41 85.14C189.31 85.96 190.25 87.66 191.54 87.18C195.19 85.79 199.65 82.94 204.35 80.4C211.16 76.73 219.42 81.73 219.42 89.46V167.82C219.42 188.95 212.14 200.87 200.7 200.87C200.7 200.87 195.96 200.5 193.28 200.87C186.89 201.75 174.62 208.56 185.52 208.56H274.03V200.87H260.67H260.66Z" fill="white"/>
<path d="M215.63 24.3V41.43L236.55 26.09V0L222.86 10.04C218.32 13.37 215.64 18.66 215.64 24.3H215.63Z" fill="white"/>
<path d="M454.92 162.16V167.56C454.92 191.04 426.65 200.87 426.65 200.87H426.11C415.34 200.87 406.36 187.7 406.36 178.35V79.37L445.81 52.16V46.09L406.36 73.31V16.25V0L359.47 34.68C358.37 35.5 359.31 37.2 360.6 36.72C364.25 35.33 368.71 32.48 373.41 29.94C380.22 26.27 388.48 31.27 388.48 39V85.64L370.51 98.03V104.1L388.48 91.71V148.12H388.49V178.55C388.49 194.77 397.68 208.57 412.95 208.57H429.6C451.78 199.32 472.83 186.54 472.83 161.01V149.82L454.94 162.16H454.92Z" fill="white"/>
<path d="M564.16 89.01C561.02 83.69 555.89 82.47 549.64 85.68L483.39 131.41V161.37C483.39 194.55 505.98 208.57 523.87 208.57C523.87 208.57 567.53 196.36 567.53 161.01V105.66C567.53 98.25 566.31 92.67 564.15 89.02L564.16 89.01ZM549.64 149.36V167.56C549.64 194.4 524.02 200.87 524.02 200.87H521.51C516.2 200.48 501.28 193.51 501.28 158.18V125.5L533.5 103.28C536.99 101.41 540.83 100.92 543.89 102.99C545.15 103.84 546.28 105.13 547.19 106.94C548.7 109.91 549.63 114.28 549.63 120.43V149.36H549.64Z" fill="white"/>
<path d="M665.64 100.02L621.3 130.61V87.68L574.41 122.36C573.31 123.18 574.25 124.88 575.54 124.4C579.19 123.01 583.65 120.16 588.35 117.62C595.16 113.95 603.42 118.95 603.42 126.68L603.44 167.83C603.44 188.96 600.88 199.5 586.04 200.88C579.61 201.48 567.38 208.57 578.28 208.57H647.88V200.88H644.68C626.56 200.88 621.32 192.12 621.32 166.08H621.3V137.09L665.64 106.23V143.96L683.53 131.62V87.67L665.64 100.01V100.02Z" fill="white"/>
<path d="M881.5 200.87C863.38 200.87 858.14 192.11 858.14 166.07H858.12V161.59C858.12 161.39 858.12 161.2 858.12 161V106.28C858.12 88.09 850.76 80.88 840.23 86.31L792.66 119.13L774.57 131.37V163.61L792.66 151.13V125.63L822.3 105C829.87 99.73 840.23 100.54 840.23 121.05V134.54L774.57 179.83V190.47C774.57 200.46 786.57 208.56 798.48 208.56H821.21C828.42 205.55 834.83 202.6 840.22 198.97C840.22 200.86 844.94 208.56 854.59 208.56H884.68V200.87H881.48H881.5ZM820.46 200.87H811.8C801.24 200.87 792.67 192.31 792.67 181.74V173.44L840.24 140.63V167.56C840.24 194.4 820.46 200.87 820.46 200.87Z" fill="white"/>
<path d="M758.3 200.87C744.3 200.87 734.94 192.11 734.94 166.07V66.71V50.46L688.05 85.14C686.95 85.96 687.89 87.66 689.18 87.18C692.83 85.79 697.29 82.94 701.99 80.4C708.8 76.73 717.06 81.73 717.06 89.46V167.82C717.06 188.95 709.78 200.87 698.34 200.87C698.34 200.87 693.6 200.5 690.92 200.87C684.53 201.75 672.26 208.56 683.16 208.56H771.67V200.87H758.31H758.3Z" fill="white"/>
<path d="M713.26 24.3V41.43L734.18 26.09V0L720.49 10.04C715.95 13.37 713.27 18.66 713.27 24.3H713.26Z" fill="white"/>
<path d="M952.07 95.02L904.5 127.84L888.62 138.8V178.56C888.62 194.78 897.81 208.58 913.08 208.58H933.06C955.24 199.33 969.97 190.63 969.97 161.02V149.83L952.08 162.17V167.57C952.08 194.41 932.3 200.88 932.3 200.88H926.26C915.47 200.88 906.72 192.13 906.72 181.34L968.79 138.52L969.98 137.7V82.68L952.09 95.02H952.07ZM906.71 132.8L952.07 101.23V143.96L906.71 175.25V132.8Z" fill="white"/>
<path d="M342.01 167.56C342.01 194.4 321.69 200.87 321.69 200.87H315.49C304.46 200.87 295.02 192.21 294.93 181.5V125.63L324.57 105C332.14 99.73 342.5 100.54 342.5 121.05V130.37L360.39 118.02V106.27C360.39 88.08 353.03 80.87 342.5 86.3L276.84 131.36V178.54C276.84 194.76 286.28 208.56 301.96 208.56H322.48C345.27 199.31 360.39 190.61 360.39 161V149.81L342.01 162.15V167.55V167.56Z" fill="white"/>
<path d="M167.38 17.78H167.35L151.05 61.93L104.29 188.4L57.52 61.93L41.22 17.78H3.86998C-5.82002 17.78 5.02998 25.25 10.77 25.25H10.74C28.91 25.25 35.89 52.88 38.69 60.17L93.56 208.57H114.98L169.85 60.17C172.66 52.88 180.64 25.25 198.82 25.25C198.82 25.25 203.12 25.25 203.2 25.25V17.77H167.37L167.38 17.78Z" fill="white"/>
</g>
<defs>
<clipPath id="clip0_1_119">
<rect width="969.96" height="208.57" fill="white"/>
</clipPath>
</defs>
</svg>
